<svg width="24" height="24" viewBox="0 0 24 24" fill="none" xmlns="http://www.w3.org/2000/svg">
<g clip-path="url(#clip0_3_250)">
<path d="M12.0057 6.6094C8.59856 6.6094 5.85035 9.01409 5.85035 11.9953C5.85035 14.9766 8.59856 17.3813 12.0057 17.3813C15.4128 17.3813 18.1611 14.9766 18.1611 11.9953C18.1611 9.01409 15.4128 6.6094 12.0057 6.6094ZM12.0057 15.4969C9.80392 15.4969 8.00392 13.9266 8.00392 11.9953C8.00392 10.0641 9.79856 8.49377 12.0057 8.49377C14.2128 8.49377 16.0075 10.0641 16.0075 11.9953C16.0075 13.9266 14.2075 15.4969 12.0057 15.4969ZM19.8486 6.38909C19.8486 7.08752 19.2057 7.64534 18.4128 7.64534C17.6146 7.64534 16.9771 7.08284 16.9771 6.38909C16.9771 5.69534 17.62 5.13284 18.4128 5.13284C19.2057 5.13284 19.8486 5.69534 19.8486 6.38909ZM23.9253 7.66409C23.8343 5.98127 23.395 4.49065 21.9861 3.26252C20.5825 2.0344 18.8789 1.65002 16.9557 1.56565C14.9736 1.46721 9.03249 1.46721 7.05035 1.56565C5.13249 1.64534 3.42892 2.02971 2.02 3.25784C0.61107 4.48596 0.177141 5.97659 0.0807128 7.6594C-0.0317871 9.39377 -0.0317871 14.5922 0.0807128 16.3266C0.171784 18.0094 0.61107 19.5 2.02 20.7281C3.42892 21.9563 5.12714 22.3406 7.05035 22.425C9.03249 22.5235 14.9736 22.5235 16.9557 22.425C18.8789 22.3453 20.5825 21.961 21.9861 20.7281C23.3896 19.5 23.8289 18.0094 23.9253 16.3266C24.0378 14.5922 24.0378 9.39846 23.9253 7.66409ZM21.3646 18.1875C20.9468 19.1063 20.1378 19.8141 19.0825 20.1844C17.5021 20.7328 13.7521 20.6063 12.0057 20.6063C10.2593 20.6063 6.50392 20.7281 4.92892 20.1844C3.87892 19.8188 3.07 19.111 2.64678 18.1875C2.02 16.8047 2.16464 13.5235 2.16464 11.9953C2.16464 10.4672 2.02535 7.18127 2.64678 5.80315C3.06464 4.8844 3.87357 4.17659 4.92892 3.80627C6.50928 3.25784 10.2593 3.3844 12.0057 3.3844C13.7521 3.3844 17.5075 3.26252 19.0825 3.80627C20.1325 4.1719 20.9414 4.87971 21.3646 5.80315C21.9914 7.18596 21.8468 10.4672 21.8468 11.9953C21.8468 13.5235 21.9914 16.8094 21.3646 18.1875Z" fill="black"/>
</g>
<defs>
<clipPath id="clip0_3_250">
<rect width="24" height="24" fill="white"/>
</clipPath>
</defs>
</svg>
