<svg width="23" height="18" viewBox="0 0 23 18" fill="none" xmlns="http://www.w3.org/2000/svg">
<path d="M22.2801 2.81639C22.0184 1.7078 21.2473 0.834703 20.2683 0.538406C18.4937 0 11.3778 0 11.3778 0C11.3778 0 4.26196 0 2.48734 0.538406C1.50829 0.83475 0.737209 1.7078 0.4755 2.81639C0 4.82578 0 9.01819 0 9.01819C0 9.01819 0 13.2106 0.4755 15.22C0.737209 16.3286 1.50829 17.1653 2.48734 17.4616C4.26196 18 11.3778 18 11.3778 18C11.3778 18 18.4936 18 20.2683 17.4616C21.2473 17.1653 22.0184 16.3286 22.2801 15.22C22.7556 13.2106 22.7556 9.01819 22.7556 9.01819C22.7556 9.01819 22.7556 4.82578 22.2801 2.81639ZM9.05051 12.8246V5.2118L14.998 9.01828L9.05051 12.8246Z" fill="black"/>
</svg>
